<svg width="79" height="78" fill="none" xmlns="http://www.w3.org/2000/svg"><path d="M77.064 74.69H1.6l1.602 1.26V1.41L1.601 2.67h75.463l-1.602-1.26v74.54c0 1.63 3.203 1.63 3.203 0V1.41c0-.689-.726-1.26-1.601-1.26H1.6C.726.15 0 .72 0 1.41v74.54c0 .69.726 1.26 1.601 1.26h75.463c2.07 0 2.07-2.52 0-2.52z" fill="#333"/><path d="M37.893 1.379v75.007c0 1.64 3.216 1.64 3.216 0V1.379c0-1.64-3.216-1.64-3.216 0z" fill="#FBD846"/><path d="M1.609 3.254h75.783c2.08 0 2.08-3.217 0-3.217H1.61c-2.08 0-2.08 3.217 0 3.217z" fill="#333"/><path d="M77.392 74.448H1.608l1.609 1.608V1.624L1.608 3.232h75.784l-1.609-1.608v74.432c0 2.08 3.217 2.08 3.217 0V1.624c0-.88-.73-1.608-1.608-1.608H1.608A1.62 1.62 0 000 1.624v74.432c0 .88.73 1.609 1.608 1.609h75.784c2.08 0 2.08-3.217 0-3.217z" fill="#333"/><path d="M43.553 35.42v6.862c0 2.08 3.216 2.08 3.216 0V35.42c0-2.059-3.216-2.059-3.216 0zm-11.323 0v6.862c0 2.08 3.217 2.08 3.217 0V35.42c0-2.059-3.217-2.059-3.217 0z" fill="#FBD846"/></svg>