<svg width="15" height="30" fill="none" xmlns="http://www.w3.org/2000/svg"><path d="M3.333 6.012V22.84s-.31 3.532 4.235 3.532c4.099 0 4.099-3.532 4.099-3.532V5.142S11.667.5 5.833.5C0 .5 0 5.142 0 5.142v17.697s0 6.673 7.5 6.673 7.5-6.673 7.5-6.673V5.142c0-.725-1.667-.725-1.667 0v17.697s.607 5.354-5.833 5.354c-5.833 0-5.833-5.354-5.833-5.354V5.142s0-3.323 4.166-3.323C10 1.819 10 5.142 10 5.142v17.697s0 2.081-2.432 2.081C5.137 24.92 5 22.84 5 22.84V6.011c0-.725-1.667-.725-1.667 0z" fill="#fff"/></svg>