<svg width="34" height="35" fill="none" xmlns="http://www.w3.org/2000/svg"><path d="M19.512 25.014l.572-.82-.687-.48-.592.593.707.707zm7.391 5.155l.707.707.845-.845-.98-.683-.572.82zm-1.658 1.657l-.707-.707.707.707zm-4.222 1.068l-.286.958.286-.958zM8.695 25.377l.707-.707-.707.707zM1.178 13.048l.958-.286-.958.286zm1.067-4.222l-.707-.707.707.707zm1.658-1.658l.82-.572-.683-.979-.844.844.707.707zm5.155 7.391l.707.707.592-.592-.48-.687-.82.572zm12.082 4.319l-.997-.07.997.07zm5.222-.07l.998.07-.998-.07zm6.047-.15l.997.07-.997-.07zM15.747 30.192l4.472-4.472-1.414-1.414-4.472 4.472 1.414 1.414zm3.193-4.359l7.391 5.155 1.144-1.64-7.39-5.155-1.145 1.64zm7.256 3.628l-1.658 1.657 1.414 1.415 1.658-1.658-1.414-1.415zm-1.658 1.657a3.25 3.25 0 01-3.228.816l-.573 1.917a5.25 5.25 0 005.215-1.318l-1.414-1.415zm-3.228.816c-4.404-1.315-8.372-3.729-11.908-7.265l-1.415 1.414c3.753 3.752 8.004 6.35 12.75 7.768l.573-1.917zM9.402 24.67c-3.537-3.537-5.95-7.505-7.266-11.908l-1.916.572c1.418 4.747 4.015 8.998 7.767 12.75l1.415-1.414zM2.136 12.762a3.25 3.25 0 01.816-3.229L1.538 8.12A5.25 5.25 0 00.22 13.334l1.916-.572zm.816-3.229L4.61 7.875 3.196 6.461 1.538 8.12l1.414 1.414zm.13-1.793l5.155 7.391 1.64-1.144-5.154-7.39-1.64 1.143zm5.268 6.112l-4.472 4.472 1.414 1.415 4.473-4.473-1.415-1.414zm11.793 4.956l-.06.844 1.995.14.06-.844-1.995-.14zm-5.361-5.144a4.836 4.836 0 015.36 5.144l1.996.14c.298-4.258-3.336-7.746-7.579-7.272l.223 1.988zm10.582 5.075l-.106 1.524 1.995.14.107-1.524-1.995-.14zM14.782 8.584c5.924-.662 11 4.208 10.582 10.155l1.996.14c.504-7.193-5.634-13.084-12.8-12.283l.222 1.988zm16.63 10.003l-.163 2.313 1.995.14.162-2.313-1.995-.14zM14.781 2.63c9.31-1.04 17.284 6.613 16.63 15.957l1.994.14C34.15 8.137 25.11-.537 14.56.643l.223 1.987z" fill="#FBD846"/></svg>