<svg width="14" height="14" viewBox="0 0 14 14" fill="none" xmlns="http://www.w3.org/2000/svg">
<path d="M5.50094 0.50293C8.2982 0.50293 10.5644 2.7691 10.5644 5.56637C10.5644 6.77551 10.1416 7.8841 9.43516 8.75551L12.9156 12.236C13.1219 12.4422 13.1219 12.7748 12.9156 12.9811C12.7094 13.1873 12.3768 13.1873 12.1705 12.9811L8.69008 9.50058C7.81867 10.207 6.71008 10.6298 5.50094 10.6298C2.70367 10.6298 0.437497 8.36363 0.437497 5.56637C0.437497 2.7691 2.70625 0.50293 5.50094 0.50293ZM5.50094 9.57793C7.71555 9.57793 9.5125 7.78098 9.5125 5.56637C9.5125 3.35176 7.71555 1.5548 5.50094 1.5548C3.28633 1.5548 1.48937 3.35176 1.48937 5.56637C1.48937 7.78098 3.28633 9.57793 5.50094 9.57793Z" fill="#FBD846"/>
</svg>
