<svg width="24" height="24" fill="none" xmlns="http://www.w3.org/2000/svg"><path d="M13.728 17.178l.286-.41-.344-.24-.296.296.354.354zm5.081 3.544l.354.353.422-.422-.49-.341-.286.41zm-1.14 1.14l-.353-.354.353.354zm-2.902.733l-.143.48.143-.48zM6.29 17.427l.354-.353-.354.353zM1.122 8.951l.48-.143-.48.143zm.734-2.903l-.354-.353.354.353zm1.14-1.14l.41-.286-.342-.49-.422.423.354.353zM6.54 9.99l.353.353.297-.296-.24-.343-.41.286zm8.307 2.969l-.499-.035.5.035zm3.59-.048l.5.035-.5-.035zm4.157-.104l.5.035-.5-.035zm-11.588 7.799l3.075-3.075-.707-.707-3.075 3.075.708.707zm2.436-3.018l5.081 3.544.572-.82-5.081-3.545-.572.82zm5.014 2.78l-1.14 1.14.707.707 1.14-1.14-.707-.707zm-1.14 1.14a2.42 2.42 0 01-2.406.608l-.286.958c1.204.36 2.51.03 3.399-.859l-.707-.707zm-2.406.608c-3.06-.914-5.814-2.59-8.266-5.042l-.707.707c2.56 2.56 5.456 4.328 8.687 5.293l.286-.958zm-8.266-5.042C4.192 14.622 2.515 11.867 1.6 8.808l-.958.286c.966 3.23 2.734 6.127 5.294 8.687l.707-.707zM1.6 8.808a2.422 2.422 0 01.608-2.406l-.707-.707a3.422 3.422 0 00-.859 3.399l.958-.286zm.608-2.406l1.14-1.14-.707-.707-1.14 1.14.707.707zm.377-1.208l3.544 5.082.82-.572-3.544-5.082-.82.572zm3.6 4.442L3.11 12.711l.708.707 3.074-3.075-.707-.707zm8.162 3.288l-.04.58.997.07.04-.58-.997-.07zm-3.894-3.736a3.512 3.512 0 013.894 3.736l.998.07a4.512 4.512 0 00-5.002-4.8l.11.994zm7.485 3.688l-.074 1.048.998.07.073-1.048-.997-.07zm-7.484-7.181c4.19-.468 7.778 2.976 7.484 7.181l.997.07c.339-4.828-3.782-8.782-8.592-8.245l.11.994zm11.64 7.077l-.11 1.59.997.07.111-1.59-.997-.07zm-11.64-11.17c6.517-.729 12.1 4.629 11.64 11.17l.998.07C23.596 5.678 17.481-.19 10.343.608l.111.994z" fill="#99CB38"/></svg>