<svg width="28" height="28" fill="none" xmlns="http://www.w3.org/2000/svg"><path d="M16.548 19.705l.571-.82-.686-.478-.591.59.706.708zm5.875 4.087l.707.708.847-.846-.983-.683-.57.82zm-1.317 1.314l-.707-.708.706.708zm-3.357.846l-.285.958.285-.958zm-9.8-5.959l.706-.708-.706.708zM1.973 10.22l.958-.287-.958.287zm.849-3.347l-.706-.708.706.708zM4.14 5.558l.82-.573-.683-.975-.844.84.707.708zm4.097 5.86l.706.708.595-.593-.481-.689-.82.574zm9.605 3.423l-.997-.07.997.07zm4.151-.055l-.997-.07.997.07zm4.807-.12l.998.07-.998-.07zm-13.1 9.293l3.554-3.546-1.412-1.416-3.555 3.546 1.412 1.416zm2.277-3.433l5.875 4.087 1.142-1.642-5.875-4.087-1.142 1.642zm5.74 2.558L20.4 24.398l1.413 1.416L23.13 24.5l-1.413-1.416zM20.4 24.398a2.385 2.385 0 01-2.364.595l-.571 1.917c1.54.459 3.21.039 4.348-1.096L20.4 24.398zm-2.364.595c-3.466-1.032-6.59-2.927-9.38-5.708L7.243 20.7c3.005 2.997 6.413 5.075 10.22 6.21l.572-1.918zm-9.38-5.708c-2.79-2.782-4.689-5.898-5.724-9.352l-1.915.574c1.137 3.798 3.222 7.197 6.227 10.194l1.412-1.416zM2.93 9.933a2.363 2.363 0 01.597-2.352L2.116 6.165a4.363 4.363 0 00-1.1 4.342l1.915-.574zm.597-2.352l1.318-1.314L3.433 4.85 2.117 6.165 3.528 7.58zM3.32 6.13l4.098 5.86 1.639-1.147-4.098-5.859L3.32 6.132zm4.211 4.578l-3.555 3.546 1.412 1.416 3.555-3.545-1.412-1.417zm9.314 4.062l-.047.669 1.995.14.047-.669-1.995-.14zm-4.035-3.857c2.262-.252 4.193 1.601 4.035 3.857l1.995.14c.247-3.508-2.755-6.375-6.251-5.985l.221 1.988zm8.186 3.802l-.085 1.208 1.995.14.085-1.208-1.995-.14zm-8.186-7.83c4.586-.51 8.508 3.248 8.186 7.83l1.995.14C23.4 9.022 18.409 4.25 12.589 4.9l.221 1.988zm12.992 7.71l-.128 1.833 1.995.14.129-1.833-1.995-.14zM12.81 2.166c7.277-.81 13.504 5.154 12.992 12.43l1.996.14C28.398 6.208 21.1-.769 12.588.18l.222 1.988z" fill="#99CB38"/></svg>