<svg width="33" height="33" fill="none" xmlns="http://www.w3.org/2000/svg"><path d="M18.585 16.755c0-.998-.687-1.83-1.61-2.07V9.242a.536.536 0 10-1.073 0v5.441a2.144 2.144 0 00-1.533 1.534h-3.832a.536.536 0 100 1.073h3.832a2.144 2.144 0 002.07 1.61 2.149 2.149 0 002.146-2.146zm-2.146 1.073a1.074 1.074 0 010-2.147 1.074 1.074 0 010 2.147zm0-11.805c.296 0 .537-.24.537-.537V4.95a.536.536 0 10-1.074 0v.536c0 .297.24.537.537.537zm-.537 21.999v.537a.536.536 0 101.074 0v-.537a.536.536 0 10-1.074 0zM28.243 17.29a.536.536 0 100-1.072h-.537a.536.536 0 100 1.073h.537zM4.634 16.218a.536.536 0 100 1.073h.537a.536.536 0 100-1.073h-.537z" fill="#000"/><path d="M24.406 9.323a.535.535 0 00.38-.157l.379-.38a.536.536 0 10-.76-.759l-.379.38a.536.536 0 00.38.916zM8.091 24.343l-.379.38a.536.536 0 10.759.758l.38-.38a.536.536 0 10-.76-.758zM8.85 8.407l-.38-.38a.536.536 0 10-.758.76l.38.379a.535.535 0 00.758 0 .536.536 0 000-.76z" fill="#FBD846"/><path d="M16.439.723C7.563.723.342 7.943.342 16.82c0 8.876 7.22 16.097 16.097 16.097 1.919 0 3.798-.336 5.588-.998a.537.537 0 10-.373-1.006c-1.67.617-3.424.93-5.215.93-8.284 0-15.024-6.74-15.024-15.023 0-8.284 6.74-15.024 15.024-15.024 8.284 0 15.024 6.74 15.024 15.024a14.99 14.99 0 01-.931 5.215.537.537 0 001.006.372 16.04 16.04 0 00.998-5.587c0-8.876-7.221-16.097-16.097-16.097z" fill="#000"/><path d="M27.17 22.776v-.591a.536.536 0 10-1.073 0v.593a2.679 2.679 0 00-1.512.895c-.327.387-.48.883-.426 1.397.055.525.326 1.012.742 1.336l1.196.93v2.918a1.607 1.607 0 01-1.073-1.511.536.536 0 10-1.073 0c0 1.295.924 2.38 2.146 2.629v.471a.536.536 0 101.074 0v-.473a2.678 2.678 0 001.512-.895c.328-.389.48-.884.426-1.398a1.957 1.957 0 00-.742-1.335l-1.196-.93v-2.919a1.608 1.608 0 011.073 1.511.536.536 0 101.073 0 2.688 2.688 0 00-2.146-2.628zm.538 5.813a.881.881 0 01.333.6c.023.22-.04.43-.177.593-.187.22-.428.375-.693.47V28.17l.537.419zm-2.148-3.03a.881.881 0 01-.333-.601.784.784 0 01.177-.592c.187-.22.428-.375.693-.47v2.08l-.537-.417z" fill="#FBD846"/></svg>