<svg width="32" height="33" fill="none" xmlns="http://www.w3.org/2000/svg"><path d="M31.216 30.823H.649l.648.51V1.14l-.648.51h30.567l-.65-.51v30.194c0 .66 1.298.66 1.298 0V1.14c0-.279-.294-.51-.648-.51H.649C.294.629 0 .86 0 1.139v30.194c0 .279.294.51.649.51h30.567c.839 0 .839-1.02 0-1.02z" fill="#333"/><path d="M15.35 1.127V31.51c0 .664 1.303.664 1.303 0V1.127c0-.664-1.303-.664-1.303 0z" fill="#FBD846"/><path d="M.651 1.886h30.697c.843 0 .843-1.303 0-1.303H.651c-.842 0-.842 1.303 0 1.303z" fill="#333"/><path d="M31.349 30.724H.65l.652.651V1.226l-.652.651h30.697l-.65-.651v30.149c0 .843 1.302.843 1.302 0V1.226a.656.656 0 00-.651-.652H.65a.656.656 0 00-.65.652v30.149c0 .357.295.652.651.652h30.697c.843 0 .843-1.303 0-1.303z" fill="#333"/><path d="M17.64 14.915v2.78c0 .843 1.304.843 1.304 0v-2.78c0-.833-1.303-.833-1.303 0zm-4.583 0v2.78c0 .843 1.303.843 1.303 0v-2.78c0-.833-1.303-.833-1.303 0z" fill="#FBD846"/></svg>