<svg width="28" height="34" fill="none" xmlns="http://www.w3.org/2000/svg"><path d="M25.473 17.206v14.1c0 .664-.456 1.174-1.049 1.174H3.305c-.593 0-1.05-.51-1.05-1.174v-14.1" stroke="#333" stroke-width="1.5"/><path clip-rule="evenodd" d="M26.387 15.98c0 .664-.457 1.175-1.05 1.175H2.347c-.592 0-1.048-.511-1.048-1.175v-5.262c0-.664.456-1.175 1.049-1.175h22.99c.592 0 1.049.51 1.049 1.175v5.262z" stroke="#333" stroke-width="1.5"/><path clip-rule="evenodd" d="M20.594 5.814c-1.003 1.124-5.565 4.393-6.614 3.27-1.003-1.125 1.916-6.284 2.92-7.408 1.003-1.124 2.645-1.124 3.694 0 1.004 1.124 1.004 3.014 0 4.138z" stroke="#FBD846" stroke-width="1.5"/><path clip-rule="evenodd" d="M7.046 5.814c1.003 1.123 5.61 4.444 6.614 3.32 1.003-1.124-1.916-6.283-2.965-7.407-1.004-1.124-2.646-1.124-3.65 0-1.003 1.072-1.003 2.912 0 4.087z" stroke="#FBD846" stroke-width="1.5"/><path d="M10.695 13.681s.684-2.35 3.33-3.525V32.43m-.183-22.223s1.049 4.087 4.698 4.7" stroke="#FBD846" stroke-width="1.5"/></svg>