<svg width="33" height="33" fill="none" xmlns="http://www.w3.org/2000/svg"><path d="M.342 32.627h32.194L.342.433v32.194zm1-4.499H4.34v-1H1.341V24.13h2v-1h-2v-2.998h3v-1h-3v-2.999h2v-1h-2v-2.998h3v-1h-3v-8.29l28.782 28.782H1.34V28.13z" fill="#333"/><path d="M6.84 14.427v13.701h13.7L6.84 14.427zm.999 2.413l10.289 10.289H7.838V16.84z" fill="#333"/><path d="M32.518 23.818l-1.236-4.941L12.838.433 9.133 4.138l18.444 18.444 4.94 1.236zm-1.375-1.375l-3.055-.763L13.545 7.137l2.292-2.292L30.38 19.388l.764 3.055zM12.838 1.846l2.292 2.292-2.292 2.292-2.292-2.292 2.292-2.292z" fill="#FBD846"/></svg>