<svg width="32" height="32" fill="none" xmlns="http://www.w3.org/2000/svg"><path d="M31.57 2.88h-5.918L18.356.5a3.102 3.102 0 00-2.643.34l-4.396 2.825a.429.429 0 10.463.722l4.396-2.82a2.242 2.242 0 011.914-.243l7.363 2.395a.42.42 0 00.133.021h5.556v7.21H27.95a.43.43 0 00-.381.232 4.317 4.317 0 01-2.091 1.802v-1.929c.688-.293 1.422-.804 1.89-1.694a.43.43 0 00-.76-.402c-.816 1.56-2.844 1.63-2.856 1.63-2.717 0-3.501-1.897-3.533-1.976a.43.43 0 00-.4-.275h-4.033a1.146 1.146 0 110-2.291H20.6a.43.43 0 100-.859h-4.813a2.004 2.004 0 100 4.009h3.764c.358.658 1.507 2.25 4.211 2.25a4.63 4.63 0 00.858-.119v6.363a.634.634 0 01-.633.634H1.834a.635.635 0 01-.634-.632V6.68a.634.634 0 01.633-.633h10.946a.43.43 0 100-.859H1.834A1.497 1.497 0 00.342 6.68v11.013a1.497 1.497 0 001.492 1.492h22.152a1.497 1.497 0 001.492-1.492v-3.8c1.539-.49 2.4-1.6 2.715-2.086h3.377a.43.43 0 00.43-.428V3.31a.43.43 0 00-.43-.43z" fill="#000"/><path d="M3.252 14.447V9.922a2.3 2.3 0 001.824-1.824h7.331a.43.43 0 000-.859h-7.72a.43.43 0 00-.429.43 1.437 1.437 0 01-1.435 1.439.43.43 0 00-.427.426v5.302a.429.429 0 00.43.43A1.437 1.437 0 014.261 16.7a.429.429 0 00.43.429H21.13a.43.43 0 00.43-.429 1.437 1.437 0 011.435-1.436.43.43 0 00.43-.429v-1.94a.43.43 0 10-.86 0v1.551a2.301 2.301 0 00-1.824 1.824H5.076a2.301 2.301 0 00-1.824-1.824z" fill="#FBD846"/><path d="M12.343 10.774h1.033a.43.43 0 000-.859h-.338V9.64a.43.43 0 10-.858 0v.287a1.347 1.347 0 00.163 2.69h.531a.492.492 0 110 .984h-1.031a.43.43 0 100 .859h.337v.276a.43.43 0 00.858 0v-.289a1.347 1.347 0 00-.164-2.69h-.531a.49.49 0 01-.36-.845.492.492 0 01.36-.137zm-4.465 1.109a.431.431 0 00-.117.384.375.375 0 00.025.08c.01.026.023.051.04.074a.394.394 0 00.117.119.44.44 0 00.543-.054.447.447 0 00.093-.14.395.395 0 00.032-.164.429.429 0 00-.733-.299zm9.402.541a.426.426 0 00.713 0 .368.368 0 00.04-.075.387.387 0 00.034-.162.43.43 0 10-.86 0 .455.455 0 00.033.162.45.45 0 00.04.075z" fill="#FBD846"/><path d="M28.11 18.928a2.034 2.034 0 00-2.744.211l-2.715 2.935a.428.428 0 00.011.62.43.43 0 00.619-.037l2.715-2.935a1.17 1.17 0 011.876.23 1.166 1.166 0 01-.118 1.3l-4.727 5.78a2.165 2.165 0 01-1.37.775l-9.149 1.324a3.062 3.062 0 00-2.228 1.54l-.25.45H1.614l4.36-6.443A6.133 6.133 0 0111.728 22a9.747 9.747 0 012.166.479c.476.17.978.258 1.484.26h4.376a1.267 1.267 0 011.265 1.265 1.367 1.367 0 01-1.366 1.365h-4.008c-.657 0-1.292.23-1.797.649l-.942.781a.43.43 0 00.55.661l.94-.781c.35-.29.79-.45 1.244-.45h4.012a2.227 2.227 0 002.224-2.223 2.127 2.127 0 00-2.124-2.124h-4.374a3.601 3.601 0 01-1.197-.212 10.599 10.599 0 00-2.358-.524 6.99 6.99 0 00-6.562 3.049L.45 31.306a.43.43 0 00.356.674h9.478a.43.43 0 00.374-.225l.374-.673a2.202 2.202 0 011.602-1.107l9.15-1.319a3.023 3.023 0 001.913-1.08l4.726-5.781a2.02 2.02 0 00-.308-2.867h-.004z" fill="#000"/></svg>